<svg xmlns="http://www.w3.org/2000/svg" viewBox="0 0 1920 720" role="img" aria-label="?????????">
  <defs>
    <linearGradient id="sky" x1="0" y1="0" x2="0" y2="1">
      <stop offset="0%" stop-color="#1a2744"/>
      <stop offset="35%" stop-color="#2d3f5c"/>
      <stop offset="65%" stop-color="#4a3f52"/>
      <stop offset="100%" stop-color="#1c2838"/>
    </linearGradient>
    <linearGradient id="glow" x1="0" y1="0" x2="1" y2="0">
      <stop offset="0%" stop-color="#f59e0b" stop-opacity="0.15"/>
      <stop offset="50%" stop-color="#fbbf24" stop-opacity="0.35"/>
      <stop offset="100%" stop-color="#f59e0b" stop-opacity="0.1"/>
    </linearGradient>
    <linearGradient id="water" x1="0" y1="0" x2="0" y2="1">
      <stop offset="0%" stop-color="#0f172a" stop-opacity="0.9"/>
      <stop offset="100%" stop-color="#020617"/>
    </linearGradient>
    <filter id="blur" x="-20%" y="-20%" width="140%" height="140%">
      <feGaussianBlur stdDeviation="2"/>
    </filter>
  </defs>

  <rect width="1920" height="720" fill="url(#sky)"/>
  <ellipse cx="960" cy="680" rx="900" ry="120" fill="url(#glow)" filter="url(#blur)"/>

  <!-- distant buildings -->
  <g fill="#0f172a" opacity="0.85">
    <rect x="0" y="380" width="90" height="200"/>
    <rect x="100" y="340" width="70" height="240"/>
    <rect x="180" y="300" width="110" height="280"/>
    <rect x="300" y="360" width="60" height="220"/>
    <rect x="370" y="280" width="95" height="300"/>
    <rect x="480" y="320" width="80" height="260"/>
    <rect x="570" y="250" width="130" height="330"/>
    <rect x="710" y="290" width="85" height="290"/>
    <rect x="810" y="220" width="150" height="360"/>
    <rect x="970" y="260" width="100" height="320"/>
    <rect x="1080" y="200" width="140" height="380"/>
    <rect x="1230" y="270" width="90" height="310"/>
    <rect x="1330" y="240" width="120" height="340"/>
    <rect x="1460" y="300" width="75" height="280"/>
    <rect x="1545" y="280" width="100" height="300"/>
    <rect x="1655" y="320" width="85" height="260"/>
    <rect x="1750" y="350" width="170" height="230"/>
  </g>

  <!-- mid-rise with lit windows -->
  <g fill="#1e293b">
    <rect x="420" y="310" width="88" height="270" rx="2"/>
    <rect x="680" y="270" width="102" height="310" rx="2"/>
    <rect x="920" y="230" width="118" height="350" rx="2"/>
    <rect x="1180" y="260" width="96" height="320" rx="2"/>
    <rect x="1380" y="290" width="110" height="290" rx="2"/>
    <rect x="1580" y="310" width="92" height="270" rx="2"/>
  </g>

  <!-- window lights -->
  <g fill="#fbbf24" opacity="0.75">
    <rect x="432" y="330" width="8" height="10"/><rect x="448" y="330" width="8" height="10"/><rect x="464" y="330" width="8" height="10"/>
    <rect x="432" y="355" width="8" height="10"/><rect x="464" y="355" width="8" height="10"/>
    <rect x="432" y="380" width="8" height="10"/><rect x="448" y="380" width="8" height="10"/><rect x="464" y="380" width="8" height="10"/>
    <rect x="432" y="405" width="8" height="10"/><rect x="448" y="405" width="8" height="10"/>
    <rect x="432" y="430" width="8" height="10"/><rect x="464" y="430" width="8" height="10"/>
    <rect x="432" y="455" width="8" height="10"/><rect x="448" y="455" width="8" height="10"/><rect x="464" y="455" width="8" height="10"/>
    <rect x="432" y="480" width="8" height="10"/><rect x="448" y="480" width="8" height="10"/>
    <rect x="432" y="505" width="8" height="10"/><rect x="464" y="505" width="8" height="10"/>
    <rect x="432" y="530" width="8" height="10"/><rect x="448" y="530" width="8" height="10"/><rect x="464" y="530" width="8" height="10"/>

    <rect x="694" y="295" width="9" height="11"/><rect x="712" y="295" width="9" height="11"/><rect x="730" y="295" width="9" height="11"/><rect x="748" y="295" width="9" height="11"/>
    <rect x="694" y="325" width="9" height="11"/><rect x="730" y="325" width="9" height="11"/>
    <rect x="694" y="355" width="9" height="11"/><rect x="712" y="355" width="9" height="11"/><rect x="748" y="355" width="9" height="11"/>
    <rect x="694" y="385" width="9" height="11"/><rect x="730" y="385" width="9" height="11"/>
    <rect x="694" y="415" width="9" height="11"/><rect x="712" y="415" width="9" height="11"/><rect x="748" y="415" width="9" height="11"/>
    <rect x="694" y="445" width="9" height="11"/><rect x="730" y="445" width="9" height="11"/>
    <rect x="694" y="475" width="9" height="11"/><rect x="712" y="475" width="9" height="11"/><rect x="748" y="475" width="9" height="11"/>
    <rect x="694" y="505" width="9" height="11"/><rect x="730" y="505" width="9" height="11"/>
    <rect x="694" y="535" width="9" height="11"/><rect x="712" y="535" width="9" height="11"/><rect x="748" y="535" width="9" height="11"/>

    <rect x="936" y="255" width="10" height="12"/><rect x="956" y="255" width="10" height="12"/><rect x="976" y="255" width="10" height="12"/><rect x="996" y="255" width="10" height="12"/>
    <rect x="936" y="290" width="10" height="12"/><rect x="976" y="290" width="10" height="12"/>
    <rect x="936" y="325" width="10" height="12"/><rect x="956" y="325" width="10" height="12"/><rect x="996" y="325" width="10" height="12"/>
    <rect x="936" y="360" width="10" height="12"/><rect x="976" y="360" width="10" height="12"/>
    <rect x="936" y="395" width="10" height="12"/><rect x="956" y="395" width="10" height="12"/><rect x="996" y="395" width="10" height="12"/>
    <rect x="936" y="430" width="10" height="12"/><rect x="976" y="430" width="10" height="12"/>
    <rect x="936" y="465" width="10" height="12"/><rect x="956" y="465" width="10" height="12"/><rect x="996" y="465" width="10" height="12"/>
    <rect x="936" y="500" width="10" height="12"/><rect x="976" y="500" width="10" height="12"/>
    <rect x="936" y="535" width="10" height="12"/><rect x="956" y="535" width="10" height="12"/><rect x="996" y="535" width="10" height="12"/>

    <rect x="1194" y="285" width="9" height="11"/><rect x="1212" y="285" width="9" height="11"/><rect x="1230" y="285" width="9" height="11"/>
    <rect x="1194" y="315" width="9" height="11"/><rect x="1230" y="315" width="9" height="11"/>
    <rect x="1194" y="345" width="9" height="11"/><rect x="1212" y="345" width="9" height="11"/><rect x="1230" y="345" width="9" height="11"/>
    <rect x="1194" y="375" width="9" height="11"/><rect x="1230" y="375" width="9" height="11"/>
    <rect x="1194" y="405" width="9" height="11"/><rect x="1212" y="405" width="9" height="11"/><rect x="1230" y="405" width="9" height="11"/>
    <rect x="1194" y="435" width="9" height="11"/><rect x="1230" y="435" width="9" height="11"/>
    <rect x="1194" y="465" width="9" height="11"/><rect x="1212" y="465" width="9" height="11"/><rect x="1230" y="465" width="9" height="11"/>
    <rect x="1194" y="495" width="9" height="11"/><rect x="1230" y="495" width="9" height="11"/>
    <rect x="1194" y="525" width="9" height="11"/><rect x="1212" y="525" width="9" height="11"/><rect x="1230" y="525" width="9" height="11"/>

    <rect x="1394" y="315" width="9" height="11"/><rect x="1412" y="315" width="9" height="11"/><rect x="1430" y="315" width="9" height="11"/><rect x="1448" y="315" width="9" height="11"/>
    <rect x="1394" y="345" width="9" height="11"/><rect x="1430" y="345" width="9" height="11"/>
    <rect x="1394" y="375" width="9" height="11"/><rect x="1412" y="375" width="9" height="11"/><rect x="1448" y="375" width="9" height="11"/>
    <rect x="1394" y="405" width="9" height="11"/><rect x="1430" y="405" width="9" height="11"/>
    <rect x="1394" y="435" width="9" height="11"/><rect x="1412" y="435" width="9" height="11"/><rect x="1448" y="435" width="9" height="11"/>
    <rect x="1394" y="465" width="9" height="11"/><rect x="1430" y="465" width="9" height="11"/>
    <rect x="1394" y="495" width="9" height="11"/><rect x="1412" y="495" width="9" height="11"/><rect x="1448" y="495" width="9" height="11"/>
    <rect x="1394" y="525" width="9" height="11"/><rect x="1430" y="525" width="9" height="11"/>
  </g>

  <!-- landmark tower -->
  <rect x="1040" y="120" width="52" height="460" fill="#1e293b"/>
  <rect x="1052" y="140" width="28" height="420" fill="#334155"/>
  <g fill="#fde68a" opacity="0.8">
    <rect x="1058" y="160" width="6" height="8"/><rect x="1068" y="160" width="6" height="8"/>
    <rect x="1058" y="190" width="6" height="8"/><rect x="1068" y="190" width="6" height="8"/>
    <rect x="1058" y="220" width="6" height="8"/><rect x="1068" y="220" width="6" height="8"/>
    <rect x="1058" y="250" width="6" height="8"/><rect x="1068" y="250" width="6" height="8"/>
    <rect x="1058" y="280" width="6" height="8"/><rect x="1068" y="280" width="6" height="8"/>
    <rect x="1058" y="310" width="6" height="8"/><rect x="1068" y="310" width="6" height="8"/>
    <rect x="1058" y="340" width="6" height="8"/><rect x="1068" y="340" width="6" height="8"/>
    <rect x="1058" y="370" width="6" height="8"/><rect x="1068" y="370" width="6" height="8"/>
    <rect x="1058" y="400" width="6" height="8"/><rect x="1068" y="400" width="6" height="8"/>
    <rect x="1058" y="430" width="6" height="8"/><rect x="1068" y="430" width="6" height="8"/>
    <rect x="1058" y="460" width="6" height="8"/><rect x="1068" y="460" width="6" height="8"/>
    <rect x="1058" y="490" width="6" height="8"/><rect x="1068" y="490" width="6" height="8"/>
    <rect x="1058" y="520" width="6" height="8"/><rect x="1068" y="520" width="6" height="8"/>
  </g>
  <polygon points="1040,120 1066,70 1092,120" fill="#334155"/>

  <!-- water / river reflection -->
  <rect y="580" width="1920" height="140" fill="url(#water)"/>
  <g opacity="0.25">
    <rect x="420" y="595" width="88" height="40" fill="#fbbf24"/>
    <rect x="680" y="590" width="102" height="45" fill="#fbbf24"/>
    <rect x="920" y="585" width="118" height="50" fill="#fbbf24"/>
    <rect x="1040" y="580" width="52" height="55" fill="#fde68a"/>
    <rect x="1180" y="590" width="96" height="45" fill="#fbbf24"/>
    <rect x="1380" y="595" width="110" height="40" fill="#fbbf24"/>
  </g>
</svg>
